<?xml version="1.0" encoding="utf-8"?>
<!-- Generator: Adobe Illustrator 25.0.0, SVG Export Plug-In . SVG Version: 6.00 Build 0)  -->
<svg version="1.1" id="Layer_1" xmlns="http://www.w3.org/2000/svg" xmlns:xlink="http://www.w3.org/1999/xlink" x="0px" y="0px"
	 viewBox="0 0 512 695" style="enable-background:new 0 0 512 695;" xml:space="preserve">
<g>
	<path d="M255.5,54.2c21.7,0,43.3,6.6,64.3,19.5c23.5,14.5,45,36.1,64.1,64.3c21.2,31.4,38.3,69.6,50.8,113.6
		c13.8,48.5,21.6,102.8,23.3,161.6c0.7,23.5-2.5,47.3-9.3,70.9c-6.9,23.9-17.3,46.2-30.9,66.5c-13.9,20.7-30.5,38.4-49.4,52.5
		c-19.8,14.7-41.7,25.3-65.3,31.3c-16.5,4.3-33.1,6.4-49.3,6.4c-23.8,0-46.9-4.6-68.8-13.6c-21.3-8.8-41-21.7-58.6-38.2
		c-36-33.9-60.7-81.2-69.4-133.3c-4.6-27.3-5.2-60.5-1.9-96C58.5,322.6,66.3,284,77.6,248c12.1-38.4,27.5-72.7,45.9-101.9
		c19-30.2,40.4-53.5,63.5-69.2C209.1,61.9,232.1,54.2,255.5,54.2 M255.5,4.2c-32.8,0-65.6,10.3-96.6,31.4
		C38.1,118.1-13.7,336.8,7.6,463.9c21.5,127.9,121.7,226.8,246.1,226.8c20,0,40.7-2.6,61.8-8C439.1,651,511.2,526.6,508,411.8
		C500.5,150.6,379,4.2,255.5,4.2L255.5,4.2z"/>
</g>
</svg>
