<?xml version="1.0" encoding="utf-8"?>
<!-- Generator: Adobe Illustrator 25.0.0, SVG Export Plug-In . SVG Version: 6.00 Build 0)  -->
<svg version="1.1" xmlns="http://www.w3.org/2000/svg" xmlns:xlink="http://www.w3.org/1999/xlink" x="0px" y="0px"
	 viewBox="0 0 512 512" style="enable-background:new 0 0 512 512;" xml:space="preserve">
<style type="text/css">
	.st0{fill:#C92002;}
	.st1{fill:none;stroke:#C92002;stroke-width:16;stroke-linecap:round;stroke-miterlimit:10;}
	.st2{fill:none;stroke:#C92002;stroke-width:16;stroke-miterlimit:10;}
	.st3{display:none;}
	.st4{display:inline;fill:none;stroke:#C92002;stroke-width:16;stroke-linecap:round;stroke-miterlimit:10;}
	.st5{display:inline;fill:none;stroke:#C92002;stroke-width:16;stroke-miterlimit:10;}
</style>
<g id="Layer_1">
	<g>
		<path class="st0" d="M330.5,30.9c0.3,0,0.5,0,0.5,0c0,0,0,0,0,0c1,0.6,3.9,5.5,3.9,15.6v418.6c0,7.9-3.1,7.9-5,7.9
			c-2.3,0-4.4-0.6-5.6-1.6c-0.4-0.4-1.3-1.1-1.3-3.8c0-5-2.3-9.7-6.2-12.7c-35.3-27.2-56.7-42.7-157.9-110.5
			c-2.6-1.8-5.7-2.7-8.9-2.7l-3.4,0c-6.1,0-19.3,0-33.1,0c-14.1,0-24.9,0-32,0c-12.9,0-21.5-8.7-21.5-21.5V190.6
			c0-12.5,8.7-21.3,21.2-21.3c5.7,0,10.9,0,15.6,0c10.1,0,18.3,0,24.9,0c4.6,0,8.5,0,11.8,0c16.4,0,22.5,0,30.2-5
			c77.6-50.8,141-93.3,152-100.8c4.4-3,7-7.9,7-13.2c0-10.6,2.5-15.5,3.6-17.1C327.7,31.2,328.8,30.9,330.5,30.9 M330.5,14.9
			c-14.6,0-23.7,12.9-23.7,35.4c-11.8,8-75.9,51-151.8,100.6c-3.2,2.1-4.7,2.4-21.4,2.4c-8.1,0-19.6-0.1-36.7-0.1
			c-4.8,0-10,0-15.7,0c-21.2,0.1-37.2,16-37.2,37.3v129.7c0,21.6,15.9,37.5,37.5,37.5c8.3,0,20.3,0,32,0c17.8,0,34.8,0,36.4,0
			c101.1,67.7,121.8,82.7,157.1,109.8c0,14.5,11.4,21.4,22.9,21.4c11.5,0,21-7.8,21-23.9V46.5C351,30,344.8,14.9,330.5,14.9
			L330.5,14.9z"/>
	</g>
	<g>
		<line class="st1" x1="81.6" y1="328.8" x2="95.2" y2="328.8"/>
		<line class="st1" x1="81.6" y1="292.3" x2="95.2" y2="292.3"/>
		<line class="st1" x1="81.6" y1="255.8" x2="95.2" y2="255.8"/>
		<line class="st1" x1="81.6" y1="219.3" x2="95.2" y2="219.3"/>
		<line class="st1" x1="81.6" y1="182.8" x2="95.2" y2="182.8"/>
	</g>
	<line class="st2" x1="152.8" y1="161" x2="152.8" y2="348.3"/>
	<line class="st2" x1="152.8" y1="161" x2="152.8" y2="348.3"/>
</g>
<g id="Layer_3">
	<line class="st1" x1="68.5" y1="450.9" x2="459.6" y2="58.9"/>
	<line class="st1" x1="197.5" y1="351.1" x2="197.5" y2="379.4"/>
	<line class="st1" x1="197.5" y1="133.2" x2="197.5" y2="289.2"/>
	<line class="st1" x1="314.2" y1="239.1" x2="314.2" y2="465"/>
	<line class="st1" x1="314.2" y1="50.9" x2="314.2" y2="167.1"/>
</g>
<g id="Layer_2" class="st3">
	<path class="st4" d="M378.2,108.9c62.1,76.4,62.1,196.8,0,273.2"/>
	<path class="st4" d="M407.8,59.1c86.1,104.2,86.1,268.5,0,372.7"/>
	<line class="st5" x1="197.5" y1="133.2" x2="197.5" y2="379.4"/>
	<line class="st5" x1="314.2" y1="50.9" x2="314.2" y2="465"/>
</g>
</svg>
