<?xml version="1.0" encoding="utf-8"?>
<!-- Generator: Adobe Illustrator 25.0.0, SVG Export Plug-In . SVG Version: 6.00 Build 0)  -->
<svg version="1.1" id="Layer_1" xmlns="http://www.w3.org/2000/svg" xmlns:xlink="http://www.w3.org/1999/xlink" x="0px" y="0px"
	 viewBox="0 0 512 512" style="enable-background:new 0 0 512 512;" xml:space="preserve">
<style type="text/css">
	.st0{fill:#FFFFFF;}
	.st1{fill:none;stroke:#FFFFFF;stroke-width:19;stroke-linecap:round;stroke-miterlimit:10;}
</style>
<g>
	<g>
		<g>
			<path class="st0" d="M387,44.2c1.9,0,2.8,0.4,3,0.5c0.2,0.2,0.7,1.4,0.7,3.9c-0.4,50.8-0.3,102.3-0.2,152.2c0,18.4,0,36.7,0,55.1
				l0,55c0,50.9,0,101.9,0,152.8c0,1.8-0.2,2.9-0.3,3.5c-0.7,0.2-1.8,0.3-3.7,0.3c-11.4,0-23,0.1-34.5,0.1c-11.4,0-23.1,0-34.6-0.1
				c-2,0-3.2-0.2-3.9-0.4c-0.2-0.7-0.4-2-0.4-4.1c0-138.1,0-276.2,0-414.3c0-2.1,0.2-3.4,0.4-4.1c0.7-0.2,1.9-0.3,3.8-0.3
				c2,0,4,0,6.1,0c6,0,12.1,0,18.1,0c6.1,0,12.1,0,18.2,0c10.6,0,19.2-0.1,27.2-0.2L387,44.2L387,44.2 M387,25.2c-0.2,0-0.4,0-0.5,0
				c-9,0.1-17.9,0.2-26.9,0.2c-12.1,0-24.2-0.1-36.3-0.1c-2,0-4.1,0-6.1,0c-15.7,0-23.1,7.6-23.1,23.5c0,138.1,0,276.2,0,414.3
				c0,15.8,7.5,23.4,23.2,23.5c11.6,0,23.1,0.1,34.6,0.1c11.5,0,23.1,0,34.6-0.1c15.5-0.1,22.9-7.5,22.9-22.9
				c0-69.3,0-138.5,0-207.8c0-69-0.3-138.1,0.2-207.1C409.7,33.3,400.2,25.2,387,25.2L387,25.2z"/>
		</g>
		<g>
			<path class="st0" d="M195.3,44.2c1.9,0,2.8,0.4,3,0.5c0.2,0.2,0.7,1.4,0.7,3.9c-0.4,50.8-0.3,102.3-0.2,152.2
				c0,18.4,0,36.7,0,55.1l0,55.9c0,50.6,0,101.3,0,151.9c0,1.8-0.2,2.9-0.3,3.5c-0.7,0.2-1.8,0.3-3.7,0.3c-11.4,0-23,0.1-34.5,0.1
				c-11.4,0-23.1,0-34.6-0.1c-2,0-3.2-0.2-3.9-0.4c-0.2-0.7-0.4-2-0.4-4.1c0-138.1,0-276.2,0-414.3c0-2.1,0.2-3.4,0.4-4.1
				c0.7-0.2,1.9-0.3,3.8-0.3c2,0,4,0,6.1,0c6,0,12.1,0,18.1,0c6.1,0,12.1,0,18.2,0c10.6,0,19.2-0.1,27.2-0.2L195.3,44.2L195.3,44.2
				 M195.3,25.2c-0.2,0-0.4,0-0.5,0c-9,0.1-17.9,0.2-26.9,0.2c-12.1,0-24.2-0.1-36.3-0.1c-2,0-4.1,0-6.1,0
				c-15.7,0-23.1,7.6-23.1,23.5c0,138.1,0,276.2,0,414.3c0,15.8,7.5,23.4,23.2,23.5c11.6,0,23.1,0.1,34.6,0.1
				c11.5,0,23.1,0,34.6-0.1c15.5-0.1,22.9-7.5,22.9-22.9c0-69.3,0-138.5,0-207.8c0-69-0.3-138.1,0.2-207.1
				C218,33.3,208.5,25.2,195.3,25.2L195.3,25.2z"/>
		</g>
	</g>
</g>
<g>
	<line class="st1" x1="148.4" y1="63.6" x2="173.1" y2="63.6"/>
	<line class="st1" x1="148.4" y1="106.3" x2="173.1" y2="106.3"/>
	<line class="st1" x1="148.4" y1="148.9" x2="173.1" y2="148.9"/>
	<line class="st1" x1="148.4" y1="191.6" x2="173.1" y2="191.6"/>
	<line class="st1" x1="148.4" y1="234.2" x2="173.1" y2="234.2"/>
	<line class="st1" x1="148.4" y1="276.9" x2="173.1" y2="276.9"/>
	<line class="st1" x1="148.4" y1="319.5" x2="173.1" y2="319.5"/>
	<line class="st1" x1="148.4" y1="362.2" x2="173.1" y2="362.2"/>
	<line class="st1" x1="148.4" y1="404.8" x2="173.1" y2="404.8"/>
	<line class="st1" x1="148.4" y1="447.4" x2="173.1" y2="447.4"/>
</g>
</svg>
