<?xml version="1.0" encoding="utf-8"?>
<!-- Generator: Adobe Illustrator 25.0.0, SVG Export Plug-In . SVG Version: 6.00 Build 0)  -->
<svg version="1.1" id="Layer_1" xmlns="http://www.w3.org/2000/svg" xmlns:xlink="http://www.w3.org/1999/xlink" x="0px" y="0px"
	 viewBox="0 0 512 512" style="enable-background:new 0 0 512 512;" xml:space="preserve">
<style type="text/css">
	.st0{fill:none;stroke:#FFFFFF;stroke-width:25;stroke-miterlimit:10;}
	.st1{fill:none;stroke:#FFFFFF;stroke-width:25;stroke-linecap:round;stroke-miterlimit:10;}
</style>
<g>
	<g>
		<path class="st0" d="M409.4,255.9c0,69.3,0,138.5,0,207.8c0,15.3-7.4,22.8-22.9,22.9c-23.1,0.1-46.2,0.1-69.3,0
			c-15.7-0.1-23.2-7.7-23.2-23.5c0-138.1,0-276.2,0-414.3c0-15.9,7.4-23.4,23.1-23.5c23.1-0.1,46.2,0.3,69.3-0.1
			c13.5-0.2,23.3,7.9,23.2,23.5C409.1,117.8,409.4,186.8,409.4,255.9z"/>
		<path class="st0" d="M217.7,255.9c0,69.3,0,138.5,0,207.8c0,15.3-7.4,22.8-22.9,22.9c-23.1,0.1-46.2,0.1-69.3,0
			c-15.7-0.1-23.2-7.7-23.2-23.5c0-138.1,0-276.2,0-414.3c0-15.9,7.4-23.4,23.1-23.5c23.1-0.1,46.2,0.3,69.3-0.1
			c13.5-0.2,23.3,7.9,23.2,23.5C217.4,117.8,217.7,186.8,217.7,255.9z"/>
	</g>
</g>
<g>
	<line class="st1" x1="145.9" y1="63.6" x2="175.6" y2="63.6"/>
	<line class="st1" x1="145.9" y1="106.3" x2="175.6" y2="106.3"/>
	<line class="st1" x1="145.9" y1="148.9" x2="175.6" y2="148.9"/>
	<line class="st1" x1="145.9" y1="191.6" x2="175.6" y2="191.6"/>
	<line class="st1" x1="145.9" y1="234.2" x2="175.6" y2="234.2"/>
	<line class="st1" x1="145.9" y1="276.9" x2="175.6" y2="276.9"/>
	<line class="st1" x1="145.9" y1="319.5" x2="175.6" y2="319.5"/>
	<line class="st1" x1="145.9" y1="362.2" x2="175.6" y2="362.2"/>
	<line class="st1" x1="145.9" y1="404.8" x2="175.6" y2="404.8"/>
	<line class="st1" x1="145.9" y1="447.4" x2="175.6" y2="447.4"/>
</g>
</svg>
