<?xml version="1.0" encoding="utf-8"?>
<!-- Generator: Adobe Illustrator 25.0.0, SVG Export Plug-In . SVG Version: 6.00 Build 0)  -->
<svg version="1.1" id="Layer_1" xmlns="http://www.w3.org/2000/svg" xmlns:xlink="http://www.w3.org/1999/xlink" x="0px" y="0px"
	 viewBox="0 0 512 512" style="enable-background:new 0 0 512 512;" xml:space="preserve">
<style type="text/css">
	.st0{fill:none;stroke:#FFFFFF;stroke-width:25;stroke-linejoin:round;stroke-miterlimit:10;}
	.st1{fill:none;stroke:#FFFFFF;stroke-width:25;stroke-linecap:round;stroke-miterlimit:10;}
</style>
<g>
	<path class="st0" d="M53.2,46.3c-0.4-22.7,21-38.6,44.3-23.7C327.8,156,428.2,213.9,470.9,238.5c13.7,7.9,13.9,27.5,0.3,35.7
		c-43.6,26.2-146,86.4-375.3,215.7c-18.5,10.1-42.3,1.5-42.3-26C53.5,131.8,54.4,117.3,53.2,46.3z"/>
</g>
<line class="st1" x1="374.9" y1="288.7" x2="406.3" y2="271.1"/>
<line class="st1" x1="343.7" y1="303.9" x2="161.4" y2="406.3"/>
<g>
	<line class="st1" x1="87.5" y1="446" x2="107.2" y2="446"/>
	<line class="st1" x1="87.5" y1="398.7" x2="107.2" y2="398.7"/>
	<line class="st1" x1="87.5" y1="351.3" x2="107.2" y2="351.3"/>
	<line class="st1" x1="87.5" y1="303.9" x2="107.2" y2="303.9"/>
	<line class="st1" x1="87.5" y1="256.5" x2="107.2" y2="256.5"/>
	<line class="st1" x1="87.5" y1="209.2" x2="107.2" y2="209.2"/>
	<line class="st1" x1="87.5" y1="161.8" x2="107.2" y2="161.8"/>
	<line class="st1" x1="87.5" y1="114.4" x2="107.2" y2="114.4"/>
	<line class="st1" x1="87.5" y1="67" x2="107.2" y2="67"/>
</g>
</svg>
