<?xml version="1.0" encoding="utf-8"?>
<!-- Generator: Adobe Illustrator 25.0.0, SVG Export Plug-In . SVG Version: 6.00 Build 0)  -->
<svg version="1.1" id="Layer_1" xmlns="http://www.w3.org/2000/svg" xmlns:xlink="http://www.w3.org/1999/xlink" x="0px" y="0px"
	 viewBox="0 0 512 512" style="enable-background:new 0 0 512 512;" xml:space="preserve">
<style type="text/css">
	.st0{fill:#FFFFFF;}
	.st1{fill:none;stroke:#FFFFFF;stroke-width:19;stroke-linecap:round;stroke-miterlimit:10;}
</style>
<g>
	<g>
		<path class="st0" d="M75.1,27.1c2.5,0,5.4,1,8.5,3c0.2,0.1,0.5,0.3,0.7,0.4C318,165.9,423.8,227,471.4,254.3
			c0.3,0.2,1.2,0.7,1.2,2.1c0,1.4-0.9,1.9-1.2,2.1C430.5,283.2,325.6,345,83,481.8c-2.3,1.2-4.6,1.9-6.9,1.9
			c-5.8,0-8.7-4.1-8.7-12.2c-0.1-141.5,0-227.5,0.1-284.5c0.1-82.9,0.1-105.1-0.6-148.6c-0.1-3.7,1.1-7.1,3.1-9.2
			C71.5,27.8,73.1,27.1,75.1,27.1 M75.1,8.1c-15.8,0-27.5,13.4-27.2,30.6c1.2,73.6,0.3,88.6,0.4,432.8c0,20.8,13.2,31.2,27.7,31.2
			c5.4,0,10.9-1.4,16.1-4.2c237.6-134,343.8-196.4,389-223.6c14-8.4,13.8-28.8-0.4-37c-44.2-25.4-148.3-85.5-387-223.8
			C87.3,9.9,81,8.1,75.1,8.1L75.1,8.1z"/>
	</g>
</g>
<line class="st1" x1="381.4" y1="289.9" x2="413.9" y2="271.7"/>
<line class="st1" x1="349" y1="305.7" x2="160.1" y2="411.8"/>
<g>
	<line class="st1" x1="83.5" y1="453" x2="103.9" y2="453"/>
	<line class="st1" x1="83.5" y1="403.9" x2="103.9" y2="403.9"/>
	<line class="st1" x1="83.5" y1="354.8" x2="103.9" y2="354.8"/>
	<line class="st1" x1="83.5" y1="305.7" x2="103.9" y2="305.7"/>
	<line class="st1" x1="83.5" y1="256.6" x2="103.9" y2="256.6"/>
	<line class="st1" x1="83.5" y1="207.5" x2="103.9" y2="207.5"/>
	<line class="st1" x1="83.5" y1="158.4" x2="103.9" y2="158.4"/>
	<line class="st1" x1="83.5" y1="109.3" x2="103.9" y2="109.3"/>
	<line class="st1" x1="83.5" y1="60.2" x2="103.9" y2="60.2"/>
</g>
</svg>
