<?xml version="1.0" encoding="utf-8"?>
<!-- Generator: Adobe Illustrator 25.0.0, SVG Export Plug-In . SVG Version: 6.00 Build 0)  -->
<svg version="1.1" xmlns="http://www.w3.org/2000/svg" xmlns:xlink="http://www.w3.org/1999/xlink" x="0px" y="0px"
	 viewBox="0 0 512 512" style="enable-background:new 0 0 512 512;" xml:space="preserve">
<style type="text/css">
	.st0{fill:#FFFFFF;stroke:#FFFFFF;stroke-width:32;stroke-miterlimit:10;}
	.st1{fill:none;stroke:#FFFFFF;stroke-width:27;stroke-miterlimit:10;}
	.st2{fill:#FFFFFF;stroke:#FFFFFF;stroke-width:7;stroke-miterlimit:10;}
</style>
<g id="Layer_1">
	<g>
		<circle class="st0" cx="131.9" cy="359.1" r="0.1"/>
		<circle class="st0" cx="166.5" cy="391" r="0.1"/>
		<circle class="st0" cx="208.7" cy="410.7" r="0.1"/>
		<circle class="st0" cx="255.2" cy="417.4" r="0.1"/>
		<circle class="st0" cx="303.1" cy="410" r="0.1"/>
		<circle class="st0" cx="347.7" cy="388.7" r="0.1"/>
		<circle class="st0" cx="383.1" cy="356.7" r="0.1"/>
		<circle class="st0" cx="407.6" cy="316.8" r="0.1"/>
		<circle class="st0" cx="419.7" cy="271.7" r="0.1"/>
		<circle class="st0" cx="417.9" cy="224.3" r="0.1"/>
	</g>
	<path class="st1" d="M84.3,106.9c71.6-83.7,192.9-104,288-48.4S508.8,229.9,471,333.4s-144.4,164.9-252.9,146
		c-108.5-18.9-187.9-112.8-188.5-223"/>
</g>
<g id="Layer_2">
	<path class="st2" d="M99.4,107.1l42.4,36.6L11,191.1c11.7-47,23-92,34.7-139.3c12.4,13.5,23.7,25.8,35.5,38.7L99.4,107.1z"/>
</g>
</svg>
