<?xml version="1.0" encoding="utf-8"?>
<!-- Generator: Adobe Illustrator 25.0.0, SVG Export Plug-In . SVG Version: 6.00 Build 0)  -->
<svg version="1.1" xmlns="http://www.w3.org/2000/svg" xmlns:xlink="http://www.w3.org/1999/xlink" x="0px" y="0px"
	 viewBox="0 0 512 512" style="enable-background:new 0 0 512 512;" xml:space="preserve">
<style type="text/css">
	.st0{fill:#FFFFFF;}
	.st1{fill:none;stroke:#FFFFFF;stroke-width:22;stroke-linecap:round;stroke-miterlimit:10;}
	.st2{fill:none;stroke:#FFFFFF;stroke-width:22;stroke-miterlimit:10;}
	.st3{display:none;}
	.st4{display:inline;fill:none;stroke:#FFFFFF;stroke-width:22;stroke-linecap:round;stroke-miterlimit:10;}
</style>
<g id="Layer_1">
	<g>
		<path class="st0" d="M322.4,36.9c4.5,0,6.6,5.8,6.6,9.7L328.9,461c0,1-0.3,6-6.5,6c-2.6,0-8.6-0.8-8.6-8c0-7-3.3-13.5-8.9-17.7
			c-4.1-3.1-14.6-10.5-30.6-21.8c-27.6-19.5-69.4-49.1-111.4-79.6c-3.8-2.7-8.3-4.2-12.9-4.2l-3.4,0c-6.1,0-19.3,0-33.1,0
			c-14.1,0-24.8,0-31.9,0c-9.4,0-15.5-6.1-15.5-15.5V190.6c0-9.1,6.1-15.3,15.2-15.3c5.7,0,10.9,0,15.6,0c10,0,18.3,0,24.8,0
			c4.6,0,8.5,0,11.8,0c17.2,0,24.3,0,33.5-6c56.8-37.2,99-70.8,121.7-88.8c7-5.6,13-10.4,15.4-12c6-4.1,9.6-10.9,9.6-18.2
			c0-5,1.1-9,3.2-11.2C317.5,38.5,318.9,36.9,322.4,36.9 M322.4,14.9c-16.9,0-30.6,12.9-30.6,35.4c-11.8,8-60.9,51-136.8,100.6
			c-3.2,2.1-4.7,2.4-21.4,2.4c-8.1,0-19.6-0.1-36.7-0.1c-4.8,0-10,0-15.7,0c-21.2,0.1-37.2,16-37.2,37.3v129.7
			c0,21.6,15.9,37.5,37.5,37.5c8.3,0,20.3,0,32,0c17.8,0,34.9,0,36.5,0c65.6,47.6,130.9,93.1,141.8,101.2c0,17.3,13,30,30.6,30
			c17.6,0,28.5-13.8,28.5-28L351,46.5C351,30,339.4,14.9,322.4,14.9L322.4,14.9z"/>
	</g>
	<g>
		<line class="st1" x1="81.6" y1="318.2" x2="95.2" y2="318.2"/>
		<line class="st1" x1="81.6" y1="286.8" x2="95.2" y2="286.8"/>
		<line class="st1" x1="81.6" y1="255.4" x2="95.2" y2="255.4"/>
		<line class="st1" x1="81.6" y1="223.9" x2="95.2" y2="223.9"/>
		<line class="st1" x1="81.6" y1="192.5" x2="95.2" y2="192.5"/>
	</g>
	<line class="st2" x1="152.8" y1="161" x2="152.8" y2="348.3"/>
	<line class="st2" x1="152.8" y1="161" x2="152.8" y2="348.3"/>
</g>
<g id="Layer_3" class="st3">
	<line class="st4" x1="68.5" y1="450.9" x2="459.6" y2="58.9"/>
	<line class="st4" x1="197.5" y1="358.2" x2="197.5" y2="374.6"/>
	<line class="st4" x1="197.5" y1="139.8" x2="197.5" y2="280.5"/>
	<line class="st4" x1="302.6" y1="254.9" x2="302.6" y2="461"/>
	<line class="st4" x1="302.6" y1="55.9" x2="302.6" y2="175.6"/>
</g>
<g id="Layer_2">
	<path class="st1" d="M378.2,108.9c62.1,76.4,62.1,196.8,0,273.2"/>
	<path class="st1" d="M407.8,59.1c86.1,104.2,86.1,268.5,0,372.7"/>
	<line class="st2" x1="197.5" y1="133.2" x2="197.5" y2="379.4"/>
	<line class="st2" x1="302.6" y1="50.9" x2="302.6" y2="457.6"/>
</g>
</svg>
